<svg width="40" height="40" viewBox="0 0 40 40" fill="none" xmlns="http://www.w3.org/2000/svg">
<circle cx="19.8788" cy="20.0001" r="19.2828" fill="#FFEBEB"/>
<path d="M16.0469 16.8228C14.6477 18.6211 14.6722 21.8158 16.4605 23.3994C18.4908 25.1963 21.3482 25.1776 23.1451 23.5248C25.2994 21.542 25.1755 18.2422 23.2705 16.3732C21.3554 14.4942 17.9331 14.3962 16.0469 16.8228Z" fill="#FCC11A"/>
<path d="M18.2935 16.206C17.7401 15.9611 17.1349 16.6282 16.8712 17.0836C16.6075 17.5404 16.3626 18.4352 16.9245 18.6643C17.4865 18.892 17.89 18.5058 18.2949 17.8387C18.6969 17.1715 18.9261 16.487 18.2935 16.206Z" fill="#FEE269"/>
<path d="M19.7341 13.6986C19.6001 13.9494 19.6447 14.1424 19.9113 14.2058C20.1779 14.2693 21.8365 14.5387 21.9762 14.5474C22.1794 14.5603 22.2543 14.4076 22.2298 14.2303C22.2039 14.0531 21.799 11.5703 21.7615 11.3426C21.7241 11.115 21.4834 10.8873 21.2543 11.1913C21.0252 11.4954 19.8349 13.5099 19.7341 13.6986ZM24.0282 15.422C23.7674 15.5027 23.7746 15.6627 23.9143 15.8658C24.0541 16.069 25.0167 17.5374 25.1046 17.6397C25.1939 17.7406 25.3452 17.7665 25.472 17.6137C25.5988 17.4624 27.181 15.2434 27.2963 15.105C27.4865 14.8773 27.3727 14.6367 27.0816 14.7116C26.8597 14.7707 24.1924 15.3716 24.0282 15.422ZM26.0167 19.6916C25.8294 19.585 25.5859 19.6153 25.5225 19.8559C25.4591 20.0965 25.181 21.8444 25.155 21.9972C25.1291 22.1499 25.2444 22.3012 25.4331 22.2638C25.6219 22.2263 28.2358 21.8387 28.4102 21.7955C28.7142 21.7191 28.8151 21.415 28.4995 21.1874C28.2949 21.0389 26.194 19.7925 26.0167 19.6916ZM23.9259 23.833C24.1276 23.7249 24.3063 23.807 24.3567 24.0362C24.4071 24.2638 24.9648 26.5953 25.0541 27.0262C25.0988 27.2423 24.851 27.4196 24.6492 27.2928C24.4461 27.166 22.2443 25.6313 22.103 25.506C21.8999 25.3287 22.0411 25.1443 22.1405 25.0506C22.3422 24.859 23.7357 23.9353 23.9259 23.833ZM17.7945 25.1126C17.5395 25.0881 17.4645 25.3157 17.5035 25.5175C17.5409 25.7207 17.9213 28.2899 17.9473 28.4816C17.9847 28.7597 18.2773 28.8749 18.466 28.5954C18.6548 28.3159 19.9574 26.2322 20.0626 26.0362C20.2528 25.6818 20.1131 25.6054 19.9228 25.5175C19.7341 25.4296 18.0611 25.1385 17.7945 25.1126ZM14.1474 22.1615C14.3247 21.8704 14.5523 21.9468 14.7181 22.2249C14.8304 22.4151 15.7815 23.6947 15.8708 23.833C15.9602 23.9728 15.9976 24.2379 15.7195 24.3013C15.4385 24.3661 13.1719 24.9613 12.8174 25.0247C12.4629 25.0881 12.2598 24.81 12.4874 24.5059C12.62 24.3272 14.0466 22.3272 14.1474 22.1615ZM13.6661 19.9568C13.9904 20.1009 14.1431 20.049 14.2108 19.817C14.3002 19.5129 14.5653 18.1195 14.5783 17.8025C14.5869 17.5965 14.5019 17.3976 14.1849 17.448C13.8679 17.4985 11.5883 17.8169 11.2972 17.9178C10.9586 18.036 10.9831 18.4077 11.2078 18.5259C11.4744 18.6657 13.437 19.8559 13.6661 19.9568ZM17.6058 14.6367C17.7888 14.4912 17.7326 14.2822 17.5683 14.1684C17.404 14.0545 15.3694 12.5833 15.1114 12.3816C14.8838 12.2043 14.6042 12.2677 14.6806 12.6727C14.7353 12.9637 15.3838 15.5114 15.4285 15.6872C15.4789 15.8903 15.6316 15.9912 15.8089 15.8644C15.9832 15.739 17.4156 14.7894 17.6058 14.6367Z" fill="#FFA722"/>
</svg>
